:FULLY-SPECIFIED
:FORCE-ALL-JOINTS-BE-3DOF
:DEGREES
442
root 1.48949 15.2316 -9.1147 5.49212 4.83139 -13.5423
lfemur -46.8501 16.8114 3.9745
ltibia 62.9553 0 0
lfoot -24.9916 -10.2701 0
ltoes -12.7255 0 0
rfemur -14.9411 -3.44768 8.90199
rtibia 38.8284 0 0
rfoot -14.6389 -13.9723 0
rtoes -49.791 0 0
lowerback 6.02945 1.6015 4.3986
upperback 1.01281 2.43843 0.924751
thorax -2.1908 1.18676 -1.7001
lowerneck -7.15866 0.0337935 5.62298
upperneck 0.687406 -0.434285 0.0690367
head 1.41974 -0.189785 -0.949097
lclavicle 2.90226e-14 6.36111e-15 0
lhumerus -39.6318 -28.4329 97.6213
lradius 54.1431 0 0
lwrist 7.92235 0 0
lhand -20.0855 -1.30814 0
lfingers 7.12502 0 0
lthumb 6.25724 28.5794 0
rclavicle 2.90226e-14 6.36111e-15 0
rhumerus -48.3514 -2.52445 -89.7222
rradius 66.3347 0 0
rwrist 12.906 0 0
rhand -30.9208 -29.1118 0
rfingers 7.12502 0 0
rthumb -4.20662 -779.05 0
443
root 1.48422 15.2492 -9.05778 5.51754 6.67078 -13.7206
lfemur -48.0731 17.691 2.71413
ltibia 63.1024 0 0
lfoot -24.1608 -9.56187 0
ltoes -11.189 0 0
rfemur -14.1139 -4.19203 9.26718
rtibia 38.4348 0 0
rfoot -14.1893 -14.421 0
rtoes -49.9384 0 0
lowerback 5.82036 1.53687 4.65131
upperback 0.964964 2.35751 1.0184
thorax -2.12322 1.14627 -1.7338
lowerneck -7.15119 -0.147953 5.45145
upperneck 0.591502 -0.659576 0.075888
head 1.38206 -0.304392 -0.923488
lclavicle 3.40774e-14 -5.71429e-21 0
lhumerus -39.7704 -27.9866 97.9446
lradius 54.1182 0 0
lwrist 7.51911 0 0
lhand -21.0797 -2.07316 0
lfingers 7.12502 0 0
lthumb 5.29716 27.8275 0
rclavicle 3.40774e-14 -5.71429e-21 0
rhumerus -48.3432 -2.42721 -89.421
rradius 66.2452 0 0
rwrist 12.7579 0 0
rhand -30.3039 -28.4375 0
rfingers 7.12502 0 0
rthumb -3.61084 -778.382 0
444
root 1.47896 15.2669 -9.00086 5.54296 8.51016 -13.8989
lfemur -49.296 18.5707 1.45377
ltibia 63.2494 0 0
lfoot -23.3301 -8.85363 0
ltoes -9.6526 0 0
rfemur -13.2867 -4.93638 9.63236
rtibia 38.0412 0 0
rfoot -13.7397 -14.8698 0
rtoes -50.0858 0 0
lowerback 5.61126 1.47224 4.90402
upperback 0.917119 2.27659 1.11204
thorax -2.05565 1.10577 -1.7675
lowerneck -7.14372 -0.329699 5.27993
upperneck 0.495598 -0.884866 0.0827394
head 1.34437 -0.419 -0.897878
lclavicle 3.91322e-14 -6.36112e-15 0
lhumerus -39.909 -27.5404 98.2678
lradius 54.0932 0 0
lwrist 7.11588 0 0
lhand -22.0739 -2.83817 0
lfingers 7.12502 0 0
lthumb 4.33708 27.0756 0
rclavicle 3.91322e-14 -6.36112e-15 0
rhumerus -48.335 -2.32997 -89.1197
rradius 66.1558 0 0
rwrist 12.6098 0 0
rhand -29.687 -27.7631 0
rfingers 7.12502 0 0
rthumb -3.01505 -777.713 0
445
root 1.47369 15.2845 -8.94394 5.56838 10.3496 -14.0772
lfemur -50.519 19.4503 0.193399
ltibia 63.3965 0 0
lfoot -22.4993 -8.1454 0
ltoes -8.11615 0 0
rfemur -12.4595 -5.68073 9.99755
rtibia 37.6476 0 0
rfoot -13.2901 -15.3185 0
rtoes -50.2332 0 0
lowerback 5.40217 1.40761 5.15673
upperback 0.869273 2.19567 1.20569
thorax -1.98807 1.06528 -1.8012
lowerneck -7.13625 -0.511445 5.1084
upperneck 0.399694 -1.11016 0.0895907
head 1.30669 -0.533607 -0.872269
lclavicle 4.4187e-14 -1.27222e-14 0
lhumerus -40.0476 -27.0941 98.5911
lradius 54.0683 0 0
lwrist 6.71264 0 0
lhand -23.0681 -3.60319 0
lfingers 7.12502 0 0
lthumb 3.377 26.3237 0
rclavicle 4.4187e-14 -1.27222e-14 0
rhumerus -48.3268 -2.23273 -88.8185
rradius 66.0663 0 0
rwrist 12.4617 0 0
rhand -29.0701 -27.0888 0
rfingers 7.12502 0 0
rthumb -2.41927 -777.045 0
446
root 1.46843 15.3022 -8.88703 5.5938 12.1889 -14.2556
lfemur -51.7419 20.3299 -1.06697
ltibia 63.5436 0 0
lfoot -21.6686 -7.43716 0
ltoes -6.57969 0 0
rfemur -11.6323 -6.42509 10.3627
rtibia 37.2539 0 0
rfoot -12.8404 -15.7673 0
rtoes -50.3806 0 0
lowerback 5.19308 1.34298 5.40944
upperback 0.821427 2.11475 1.29933
thorax -1.9205 1.02479 -1.83489
lowerneck -7.12879 -0.693191 4.93688
upperneck 0.303789 -1.33545 0.096442
head 1.269 -0.648214 -0.84666
lclavicle 4.92418e-14 -1.90834e-14 0
lhumerus -40.1862 -26.6478 98.9143
lradius 54.0434 0 0
lwrist 6.30941 0 0
lhand -24.0622 -4.36821 0
lfingers 7.12502 0 0
lthumb 2.41692 25.5717 0
rclavicle 4.92418e-14 -1.90834e-14 0
rhumerus -48.3186 -2.13548 -88.5173
rradius 65.9769 0 0
rwrist 12.3135 0 0
rhand -28.4532 -26.4145 0
rfingers 7.12502 0 0
rthumb -1.82349 -776.376 0
447
root 1.46316 15.3198 -8.83011 5.61922 14.0283 -14.4339
lfemur -52.9649 21.2095 -2.32734
ltibia 63.6907 0 0
lfoot -20.8378 -6.72893 0
ltoes -5.04324 0 0
rfemur -10.8051 -7.16944 10.7279
rtibia 36.8603 0 0
rfoot -12.3908 -16.216 0
rtoes -50.528 0 0
lowerback 4.98399 1.27835 5.66215
upperback 0.773581 2.03383 1.39298
thorax -1.85292 0.984292 -1.86859
lowerneck -7.12132 -0.874938 4.76535
upperneck 0.207885 -1.56074 0.103293
head 1.23132 -0.762821 -0.821051
lclavicle 5.42966e-14 -2.54445e-14 0
lhumerus -40.3248 -26.2015 99.2376
lradius 54.0185 0 0
lwrist 5.90617 0 0
lhand -25.0564 -5.13323 0
lfingers 7.12502 0 0
lthumb 1.45684 24.8198 0
rclavicle 5.42966e-14 -2.54445e-14 0
rhumerus -48.3104 -2.03824 -88.2161
rradius 65.8874 0 0
rwrist 12.1654 0 0
rhand -27.8363 -25.7402 0
rfingers 7.12502 0 0
rthumb -1.2277 -775.708 0
448
root 1.4579 15.3375 -8.77319 5.64464 15.8677 -14.6122
lfemur -54.1878 22.0892 -3.5877
ltibia 63.8377 0 0
lfoot -20.0071 -6.02069 0
ltoes -3.50679 0 0
rfemur -9.97795 -7.91379 11.0931
rtibia 36.4667 0 0
rfoot -11.9412 -16.6648 0
rtoes -50.6754 0 0
lowerback 4.77489 1.21372 5.91486
upperback 0.725736 1.95291 1.48662
thorax -1.78535 0.943799 -1.90229
lowerneck -7.11385 -1.05668 4.59383
upperneck 0.111981 -1.78603 0.110145
head 1.19363 -0.877429 -0.795441
lclavicle 5.93514e-14 -3.18056e-14 0
lhumerus -40.4634 -25.7553 99.5608
lradius 53.9935 0 0
lwrist 5.50294 0 0
lhand -26.0506 -5.89824 0
lfingers 7.12502 0 0
lthumb 0.496759 24.0679 0
rclavicle 5.93514e-14 -3.18056e-14 0
rhumerus -48.3022 -1.941 -87.9148
rradius 65.798 0 0
rwrist 12.0173 0 0
rhand -27.2194 -25.0658 0
rfingers 7.12502 0 0
rthumb -0.63192 -775.039 0
449
root 1.45263 15.3551 -8.71627 5.67006 17.7071 -14.7905
lfemur -55.4108 22.9688 -4.84807
ltibia 63.9848 0 0
lfoot -19.1763 -5.31246 0
ltoes -1.97034 0 0
rfemur -9.15076 -8.65814 11.4583
rtibia 36.0731 0 0
rfoot -11.4916 -17.1135 0
rtoes -50.8228 0 0
lowerback 4.5658 1.14909 6.16757
upperback 0.67789 1.87199 1.58027
thorax -1.71777 0.903305 -1.93599
lowerneck -7.10638 -1.23843 4.4223
upperneck 0.016077 -2.01132 0.116996
head 1.15595 -0.992036 -0.769832
lclavicle 6.44062e-14 -3.81667e-14 0
lhumerus -40.602 -25.309 99.8841
lradius 53.9686 0 0
lwrist 5.0997 0 0
lhand -27.0448 -6.66326 0
lfingers 7.12502 0 0
lthumb -0.463321 23.316 0
rclavicle 6.44062e-14 -3.81667e-14 0
rhumerus -48.294 -1.84376 -87.6136
rradius 65.7085 0 0
rwrist 11.8692 0 0
rhand -26.6025 -24.3915 0
rfingers 7.12502 0 0
rthumb -0.0361369 -774.371 0
450
root 1.51122 15.3983 -8.64051 5.46584 19.4562 -14.8255
lfemur -55.6155 23.4283 -6.25546
ltibia 63.6266 0 0
lfoot -19.1784 -4.64795 0
ltoes -0.741297 0 0
rfemur -8.06109 -8.53428 11.6958
rtibia 35.4277 0 0
rfoot -9.64836 -17.5665 0
rtoes -50.9181 0 0
lowerback 4.27847 1.11043 6.20165
upperback 0.598974 1.80525 1.69619
thorax -1.64555 0.871221 -1.82723
lowerneck -7.12754 -1.44102 4.30816
upperneck 0.152675 -2.27516 0.140419
head 1.19965 -1.12145 -0.753193
lclavicle 4.20003e-14 -3.70308e-14 0
lhumerus -41.0586 -25.0435 100.36
lradius 53.7188 0 0
lwrist 4.61481 0 0
lhand -27.1822 -7.36964 0
lfingers 7.12502 0 0
lthumb -0.595985 22.609 0
rclavicle 4.20003e-14 -3.70308e-14 0
rhumerus -48.7105 -1.97665 -87.0458
rradius 65.5029 0 0
rwrist 11.5426 0 0
rhand -27.0288 -24.587 0
rfingers 7.12502 0 0
rthumb -0.447864 -774.564 0
451
root 1.56982 15.4415 -8.56476 5.26162 21.2053 -14.8604
lfemur -55.8202 23.8877 -7.66285
ltibia 63.2683 0 0
lfoot -19.1804 -3.98344 0
ltoes 0.487746 0 0
rfemur -6.97142 -8.41043 11.9332
rtibia 34.7822 0 0
rfoot -7.80512 -18.0195 0
rtoes -51.0134 0 0
lowerback 3.99114 1.07178 6.23573
upperback 0.520059 1.73852 1.81212
thorax -1.57333 0.839138 -1.71848
lowerneck -7.14871 -1.6436 4.19402
upperneck 0.289274 -2.539 0.163841
head 1.24336 -1.25086 -0.736554
lclavicle 1.95945e-14 -3.58949e-14 0
lhumerus -41.5152 -24.7779 100.836
lradius 53.469 0 0
lwrist 4.12993 0 0
lhand -27.3195 -8.07601 0
lfingers 7.12502 0 0
lthumb -0.728649 21.9021 0
rclavicle 1.95945e-14 -3.58949e-14 0
rhumerus -49.1271 -2.10953 -86.4779
rradius 65.2973 0 0
rwrist 11.216 0 0
rhand -27.4551 -24.7825 0
rfingers 7.12502 0 0
rthumb -0.859592 -774.756 0
452
root 1.62841 15.4847 -8.489 5.0574 22.9544 -14.8954
lfemur -56.0249 24.3472 -9.07024
ltibia 62.9101 0 0
lfoot -19.1825 -3.31893 0
ltoes 1.71679 0 0
rfemur -5.88175 -8.28657 12.1707
rtibia 34.1368 0 0
rfoot -5.96188 -18.4725 0
rtoes -51.1087 0 0
lowerback 3.70381 1.03312 6.26981
upperback 0.441143 1.67178 1.92804
thorax -1.50111 0.807054 -1.60972
lowerneck -7.16987 -1.84619 4.07988
upperneck 0.425872 -2.80284 0.187264
head 1.28706 -1.38027 -0.719915
lclavicle -2.81141e-15 -3.4759e-14 0
lhumerus -41.9718 -24.5124 101.312
lradius 53.2192 0 0
lwrist 3.64504 0 0
lhand -27.4569 -8.78239 0
lfingers 7.12502 0 0
lthumb -0.861313 21.1951 0
rclavicle -2.81141e-15 -3.4759e-14 0
rhumerus -49.5436 -2.24242 -85.9101
rradius 65.0917 0 0
rwrist 10.8895 0 0
rhand -27.8814 -24.978 0
rfingers 7.12502 0 0
rthumb -1.27132 -774.949 0
453
root 1.687 15.5279 -8.41325 4.85317 24.7036 -14.9303
lfemur -56.2297 24.8066 -10.4776
ltibia 62.5519 0 0
lfoot -19.1845 -2.65442 0
ltoes 2.94583 0 0
rfemur -4.79207 -8.16272 12.4081
rtibia 33.4914 0 0
rfoot -4.11864 -18.9256 0
rtoes -51.2041 0 0
lowerback 3.41648 0.994464 6.3039
upperback 0.362228 1.60505 2.04396
thorax -1.42889 0.774971 -1.50096
lowerneck -7.19103 -2.04877 3.96574
upperneck 0.562471 -3.06667 0.210686
head 1.33077 -1.50968 -0.703277
lclavicle -2.52173e-14 -3.3623e-14 0
lhumerus -42.4285 -24.2469 101.787
lradius 52.9695 0 0
lwrist 3.16016 0 0
lhand -27.5942 -9.48877 0
lfingers 7.12502 0 0
lthumb -0.993978 20.4882 0
rclavicle -2.52173e-14 -3.3623e-14 0
rhumerus -49.9602 -2.3753 -85.3423
rradius 64.886 0 0
rwrist 10.5629 0 0
rhand -28.3077 -25.1735 0
rfingers 7.12502 0 0
rthumb -1.68305 -775.142 0
454
root 1.74559 15.5711 -8.33749 4.64895 26.4527 -14.9653
lfemur -56.4344 25.2661 -11.885
ltibia 62.1937 0 0
lfoot -19.1866 -1.98991 0
ltoes 4.17487 0 0
rfemur -3.7024 -8.03886 12.6456
rtibia 32.846 0 0
rfoot -2.2754 -19.3786 0
rtoes -51.2994 0 0
lowerback 3.12915 0.955807 6.33798
upperback 0.283312 1.53831 2.15988
thorax -1.35667 0.742887 -1.3922
lowerneck -7.21219 -2.25136 3.8516
upperneck 0.699069 -3.33051 0.234109
head 1.37447 -1.63909 -0.686638
lclavicle -4.76232e-14 -3.24871e-14 0
lhumerus -42.8851 -23.9814 102.263
lradius 52.7197 0 0
lwrist 2.67527 0 0
lhand -27.7316 -10.1951 0
lfingers 7.12502 0 0
lthumb -1.12664 19.7812 0
rclavicle -4.76232e-14 -3.24871e-14 0
rhumerus -50.3767 -2.50819 -84.7745
rradius 64.6804 0 0
rwrist 10.2363 0 0
rhand -28.734 -25.369 0
rfingers 7.12502 0 0
rthumb -2.09477 -775.335 0
